<svg width="45" height="36" xmlns="http://www.w3.org/2000/svg" xmlns:xlink="http://www.w3.org/1999/xlink" xml:space="preserve" overflow="hidden"><g transform="translate(-179 -360)"><path d="M17.9921 3.75C10.1264 3.75 3.75 10.1264 3.75 17.9921 3.75 25.8578 10.1264 32.2342 17.9921 32.2342 25.8578 32.2342 32.2342 25.8578 32.2342 17.9921 32.2342 17.9918 32.2342 17.9914 32.2342 17.991 32.2369 10.1286 25.8654 3.7527 18.003 3.75 17.9994 3.75 17.9958 3.75 17.9921 3.75ZM21.4421 18.6724C19.3671 20.7436 17.2796 22.8333 15.1796 24.9412 13.3951 23.1483 11.6064 21.3595 9.81338 19.575L11.6063 17.7821 15.1796 21.3555C16.9144 19.5957 18.6394 17.8484 20.3546 16.1134 22.0687 14.3786 23.0171 13.4475 24.795 11.7292 24.8449 11.6794 24.8985 11.6299 24.9566 11.5793 25.013 11.5315 25.0633 11.4771 25.1066 11.4172L26.9246 13.2101C24.813 15.3101 23.517 16.6001 21.4417 18.6712Z" fill="#00B050" transform="matrix(1.25 0 0 1 179 360)"/></g></svg>