<svg width="45" height="36" xmlns="http://www.w3.org/2000/svg" xmlns:xlink="http://www.w3.org/1999/xlink" xml:space="preserve" overflow="hidden"><g transform="translate(-215 -457)"><path d="M17.9944 3.75C10.1284 3.74979 3.75172 10.1262 3.7515 17.9921 3.75128 25.8581 10.1277 32.2348 17.9936 32.235 25.8596 32.2352 32.2363 25.8588 32.2365 17.9929 32.2365 17.9924 32.2365 17.9919 32.2365 17.9914 32.2394 10.129 25.868 3.75289 18.0056 3.75 18.0019 3.75 17.9981 3.75 17.9944 3.75ZM24.3581 22.5634 22.5653 24.3562 17.9944 19.7846 13.425 24.3555 11.6321 22.5626 16.2 17.9914 11.6302 13.4205 13.425 11.6276 17.9944 16.2 22.5653 11.6276 24.3581 13.4205 19.7873 17.9914Z" fill="#C00000" transform="matrix(1.25 0 0 1 215 457)"/></g></svg>